<svg width="41" height="39" viewBox="0 0 41 39" fill="none" xmlns="http://www.w3.org/2000/svg">
<path d="M20.5 39C9.17782 39 0 30.2699 0 19.5C0 8.73012 9.17782 0 20.5 0C31.8222 0 41 8.73012 41 19.5C41 30.2699 31.8222 39 20.5 39ZM20.5 2.12134C10.4644 2.12134 2.23013 9.95397 2.23013 19.5C2.23013 29.046 10.4644 36.8787 20.5 36.8787C30.5356 36.8787 38.7699 29.046 38.7699 19.5C38.7699 9.95397 30.5356 2.12134 20.5 2.12134Z" fill="white"/>
<path d="M8.49168 33.6144L6.43311 32.7169C7.03352 31.3299 8.92055 30.5956 11.0649 29.6981C13.1235 28.8006 15.6967 27.7399 15.6967 26.4345V24.6395C14.9247 24.0684 13.7239 22.7629 13.5523 20.8863C12.9519 20.3152 12.0084 19.2546 12.0084 17.9491C12.0084 17.1332 12.3515 16.4805 12.6088 16.0725C12.4373 15.175 12.0942 13.3801 12.0942 11.993C12.0942 7.50559 15.3536 4.56836 20.5 4.56836C21.9582 4.56836 23.7595 4.97629 24.703 5.95537C27.0189 6.36332 28.9059 8.97421 28.9059 11.993C28.9059 13.9512 28.5628 15.583 28.3055 16.3173C28.5628 16.7253 28.8201 17.2964 28.8201 17.9491C28.8201 19.4993 28.0482 20.4784 27.2762 20.9679C27.1046 22.8445 25.9896 24.0684 25.3034 24.6395V26.4345C25.3034 27.5767 27.4477 28.311 29.4205 29.0453C31.7364 29.8612 34.1381 30.6771 34.9101 32.5537L32.7657 33.288C32.4226 32.3089 30.3641 31.6562 28.6486 31.0035C25.9896 30.106 22.9875 29.0453 22.9875 26.4345V23.4972L23.5021 23.1709C23.5879 23.1709 25.0461 22.1918 25.0461 20.3152V19.5809L25.7323 19.3361C25.818 19.2545 26.5042 18.9282 26.5042 17.9491C26.5042 17.6228 26.2469 17.2964 26.1611 17.2148L25.7323 16.7253L25.9038 16.1541C25.9038 16.1541 26.5042 14.3591 26.5042 11.9114C26.5042 9.8717 25.3034 7.99512 24.0168 7.99512H23.3306L22.9875 7.42401C22.7302 7.01606 21.7009 6.60811 20.3285 6.60811C16.4687 6.60811 14.1528 8.56626 14.1528 11.9114C14.1528 13.4617 14.7532 15.9909 14.7532 15.9909L14.9247 16.5621L14.4959 16.97C14.4959 16.97 14.1528 17.378 14.1528 17.7859C14.1528 18.3571 14.9247 19.0914 15.2678 19.4177L15.6967 19.7441V20.3152C15.6967 22.1102 17.3264 23.0893 17.3264 23.0893L17.841 23.4156V26.3529C17.841 29.0453 14.6674 30.4324 11.8369 31.5746C10.636 32.2274 8.83477 33.0433 8.49168 33.6144Z" fill="white"/>
</svg>
