<svg width="30" height="27" viewBox="0 0 30 27" fill="none" xmlns="http://www.w3.org/2000/svg">
<path d="M1.86432 27H28.1357C28.6301 27 29.1043 26.8066 29.454 26.4624C29.8036 26.1183 30 25.6514 30 25.1647V8.13904V4.80487C30 4.31811 29.8036 3.85129 29.454 3.50711C29.1043 3.16292 28.6301 2.96955 28.1357 2.96955H25.1714V1.44012C25.1714 1.20323 25.267 0.976046 25.4372 0.80854C25.6073 0.641035 25.8381 0.546931 26.0787 0.546931C26.3192 0.548693 26.5496 0.641848 26.7219 0.806935C26.8066 0.889947 26.8738 0.988618 26.9197 1.09728C26.9655 1.20594 26.9891 1.32245 26.9891 1.44012C26.9891 1.52125 27.0219 1.59905 27.0801 1.65641C27.1384 1.71378 27.2174 1.74601 27.2998 1.74601C27.3823 1.74601 27.4613 1.71378 27.5196 1.65641C27.5778 1.59905 27.6106 1.52125 27.6106 1.44012C27.5928 1.05232 27.4238 0.686192 27.1388 0.417947C26.8537 0.149701 26.4746 0 26.0803 0C25.6859 0 25.3068 0.149701 25.0218 0.417947C24.7367 0.686192 24.5677 1.05232 24.55 1.44012V2.96955H19.6313V1.44012C19.6313 1.20323 19.7269 0.976046 19.897 0.80854C20.0672 0.641035 20.298 0.546931 20.5386 0.546931C20.779 0.548693 21.0095 0.641848 21.1818 0.806935C21.267 0.889535 21.3346 0.988128 21.3805 1.09688C21.4264 1.20564 21.4497 1.32235 21.449 1.44012C21.449 1.52125 21.4817 1.59905 21.54 1.65641C21.5983 1.71378 21.6773 1.74601 21.7597 1.74601C21.8421 1.74601 21.9212 1.71378 21.9794 1.65641C22.0377 1.59905 22.0704 1.52125 22.0704 1.44012C22.0527 1.05232 21.8837 0.686192 21.5986 0.417947C21.3136 0.149701 20.9345 0 20.5401 0C20.1458 0 19.7667 0.149701 19.4816 0.417947C19.1966 0.686192 19.0276 1.05232 19.0098 1.44012V2.96955H14.0911V1.44012C14.0928 1.20376 14.1895 0.977683 14.3602 0.811411C14.5308 0.645139 14.7615 0.552234 15.0016 0.553049C15.2431 0.554022 15.4748 0.647235 15.6479 0.813053C15.7321 0.896215 15.7989 0.99498 15.8442 1.10365C15.8895 1.21233 15.9126 1.32876 15.912 1.44624C15.912 1.52736 15.9447 1.60517 16.003 1.66253C16.0612 1.7199 16.1403 1.75212 16.2227 1.75212C16.3051 1.75212 16.3841 1.7199 16.4424 1.66253C16.5007 1.60517 16.5334 1.52736 16.5334 1.44624C16.5156 1.05843 16.3467 0.69231 16.0616 0.424065C15.7766 0.155819 15.3974 0.00611758 15.0031 0.00611758C14.6088 0.00611758 14.2296 0.155819 13.9446 0.424065C13.6596 0.69231 13.4906 1.05843 13.4728 1.44624V2.97567H8.55412V1.44624C8.56768 1.21799 8.66934 1.00347 8.8383 0.846591C9.00725 0.689709 9.23072 0.602327 9.46297 0.602327C9.69522 0.602327 9.9187 0.689709 10.0877 0.846591C10.2566 1.00347 10.3583 1.21799 10.3718 1.44624C10.3718 1.52736 10.4046 1.60517 10.4628 1.66253C10.5211 1.7199 10.6001 1.75212 10.6825 1.75212C10.765 1.75212 10.844 1.7199 10.9023 1.66253C10.9605 1.60517 10.9933 1.52736 10.9933 1.44624C10.9755 1.05843 10.8065 0.69231 10.5215 0.424065C10.2364 0.155819 9.8573 0.00611758 9.46297 0.00611758C9.06864 0.00611758 8.6895 0.155819 8.40446 0.424065C8.11942 0.69231 7.95043 1.05843 7.93268 1.44624V2.97567H3.01398V1.44624C3.01398 1.32894 3.03745 1.2128 3.08305 1.10443C3.12864 0.996062 3.19547 0.897598 3.27973 0.814658C3.36398 0.731718 3.464 0.665926 3.57408 0.621039C3.68415 0.576152 3.80214 0.553049 3.92128 0.553049C4.16172 0.554811 4.39216 0.647966 4.56447 0.813053C4.64975 0.895652 4.71733 0.994246 4.76323 1.103C4.80913 1.21176 4.83241 1.32847 4.83169 1.44624C4.83169 1.52736 4.86443 1.60517 4.9227 1.66253C4.98097 1.7199 5.06001 1.75212 5.14241 1.75212C5.22482 1.75212 5.30385 1.7199 5.36213 1.66253C5.4204 1.60517 5.45313 1.52736 5.45313 1.44624C5.43538 1.05843 5.26639 0.69231 4.98135 0.424065C4.69631 0.155819 4.31717 0.00611758 3.92284 0.00611758C3.52851 0.00611758 3.14937 0.155819 2.86432 0.424065C2.57928 0.69231 2.4103 1.05843 2.39254 1.44624V2.97567H1.86432C1.37308 2.97565 0.901691 3.16649 0.552594 3.50672C0.203498 3.84695 0.00491235 4.30907 0 4.79264V25.18C0.00409807 25.6641 0.202325 26.127 0.551509 26.4679C0.900694 26.8088 1.37255 27 1.86432 27ZM28.1357 26.3882H1.86432C1.53469 26.3882 1.21856 26.2593 0.985471 26.0299C0.752386 25.8004 0.62144 25.4892 0.62144 25.1647V8.44186H29.3475V25.18C29.3436 25.4966 29.2151 25.7994 28.9891 26.0247C28.7631 26.25 28.4572 26.3803 28.1357 26.3882ZM27.4303 12.3542C27.5128 12.3542 27.5918 12.3219 27.6501 12.2646C27.7083 12.2072 27.7411 12.1294 27.7411 12.0483C27.7411 11.9671 27.7083 11.8893 27.6501 11.832C27.5918 11.7746 27.5128 11.7424 27.4303 11.7424H26.0072V10.0325C26.0072 9.95135 25.9745 9.87354 25.9162 9.81618C25.858 9.75881 25.7789 9.72659 25.6965 9.72659C25.6141 9.72659 25.5351 9.75881 25.4768 9.81618C25.4185 9.87354 25.3858 9.95135 25.3858 10.0325V11.7424H22.4806V10.0325C22.4806 9.95135 22.4478 9.87354 22.3896 9.81618C22.3313 9.75881 22.2523 9.72659 22.1699 9.72659C22.0875 9.72659 22.0084 9.75881 21.9501 9.81618C21.8919 9.87354 21.8591 9.95135 21.8591 10.0325V11.7424H18.9539V10.0325C18.9539 9.95135 18.9212 9.87354 18.8629 9.81618C18.8046 9.75881 18.7256 9.72659 18.6432 9.72659C18.5608 9.72659 18.4818 9.75881 18.4235 9.81618C18.3652 9.87354 18.3325 9.95135 18.3325 10.0325V11.7424H15.4272V10.0325C15.4272 9.95135 15.3945 9.87354 15.3362 9.81618C15.278 9.75881 15.1989 9.72659 15.1165 9.72659C15.0341 9.72659 14.9551 9.75881 14.8968 9.81618C14.8385 9.87354 14.8058 9.95135 14.8058 10.0325V11.7424H11.8944V10.0325C11.8944 9.95135 11.8616 9.87354 11.8033 9.81618C11.7451 9.75881 11.666 9.72659 11.5836 9.72659C11.5012 9.72659 11.4222 9.75881 11.3639 9.81618C11.3057 9.87354 11.2729 9.95135 11.2729 10.0325V11.7424H8.3739V10.0325C8.3739 9.95135 8.34116 9.87354 8.28289 9.81618C8.22462 9.75881 8.14559 9.72659 8.06318 9.72659C7.98077 9.72659 7.90174 9.75881 7.84347 9.81618C7.7852 9.87354 7.75246 9.95135 7.75246 10.0325V11.7424H4.84412V10.0325C4.84412 9.95135 4.81139 9.87354 4.75312 9.81618C4.69484 9.75881 4.61581 9.72659 4.5334 9.72659C4.45099 9.72659 4.37196 9.75881 4.31369 9.81618C4.25542 9.87354 4.22268 9.95135 4.22268 10.0325V11.7424H2.57276C2.49035 11.7424 2.41132 11.7746 2.35305 11.832C2.29478 11.8893 2.26204 11.9671 2.26204 12.0483C2.26204 12.1294 2.29478 12.2072 2.35305 12.2646C2.41132 12.3219 2.49035 12.3542 2.57276 12.3542H4.21336V15.306H2.57276C2.49035 15.306 2.41132 15.3382 2.35305 15.3955C2.29478 15.4529 2.26204 15.5307 2.26204 15.6118C2.26204 15.693 2.29478 15.7708 2.35305 15.8281C2.41132 15.8855 2.49035 15.9177 2.57276 15.9177H4.21336V18.8665H2.57276C2.49035 18.8665 2.41132 18.8987 2.35305 18.9561C2.29478 19.0134 2.26204 19.0912 2.26204 19.1724C2.26204 19.2535 2.29478 19.3313 2.35305 19.3887C2.41132 19.446 2.49035 19.4782 2.57276 19.4782H4.21336V22.427H2.57276C2.49035 22.427 2.41132 22.4592 2.35305 22.5166C2.29478 22.5739 2.26204 22.6518 2.26204 22.7329C2.26204 22.814 2.29478 22.8918 2.35305 22.9492C2.41132 23.0065 2.49035 23.0388 2.57276 23.0388H4.21336V24.7456C4.21336 24.8267 4.2461 24.9045 4.30437 24.9619C4.36264 25.0193 4.44167 25.0515 4.52408 25.0515C4.60649 25.0515 4.68552 25.0193 4.74379 24.9619C4.80206 24.9045 4.8348 24.8267 4.8348 24.7456V23.0326H7.74314V24.7395C7.74314 24.8206 7.77588 24.8984 7.83415 24.9558C7.89242 25.0132 7.97145 25.0454 8.05386 25.0454C8.13627 25.0454 8.2153 25.0132 8.27357 24.9558C8.33184 24.8984 8.36458 24.8206 8.36458 24.7395V23.0326H11.2729V24.7395C11.2729 24.8206 11.3057 24.8984 11.3639 24.9558C11.4222 25.0132 11.5012 25.0454 11.5836 25.0454C11.666 25.0454 11.7451 25.0132 11.8033 24.9558C11.8616 24.8984 11.8944 24.8206 11.8944 24.7395V23.0326H14.7996V24.7395C14.7996 24.8206 14.8323 24.8984 14.8906 24.9558C14.9489 25.0132 15.0279 25.0454 15.1103 25.0454C15.1927 25.0454 15.2717 25.0132 15.33 24.9558C15.3883 24.8984 15.421 24.8206 15.421 24.7395V23.0326H18.3263V24.7395C18.3263 24.8206 18.359 24.8984 18.4173 24.9558C18.4755 25.0132 18.5546 25.0454 18.637 25.0454C18.7194 25.0454 18.7984 25.0132 18.8567 24.9558C18.915 24.8984 18.9477 24.8206 18.9477 24.7395V23.0326H21.8529V24.7395C21.8529 24.8206 21.8857 24.8984 21.9439 24.9558C22.0022 25.0132 22.0812 25.0454 22.1636 25.0454C22.2461 25.0454 22.3251 25.0132 22.3834 24.9558C22.4416 24.8984 22.4744 24.8206 22.4744 24.7395V23.0326H25.3796V24.7395C25.3796 24.8206 25.4123 24.8984 25.4706 24.9558C25.5289 25.0132 25.6079 25.0454 25.6903 25.0454C25.7727 25.0454 25.8518 25.0132 25.91 24.9558C25.9683 24.8984 26.001 24.8206 26.001 24.7395V23.0326H27.4303C27.5128 23.0326 27.5918 23.0004 27.6501 22.9431C27.7083 22.8857 27.7411 22.8079 27.7411 22.7268C27.7411 22.6456 27.7083 22.5678 27.6501 22.5105C27.5918 22.4531 27.5128 22.4209 27.4303 22.4209H26.0072V19.4721H27.4303C27.5128 19.4721 27.5918 19.4399 27.6501 19.3825C27.7083 19.3252 27.7411 19.2474 27.7411 19.1662C27.7411 19.0851 27.7083 19.0073 27.6501 18.95C27.5918 18.8926 27.5128 18.8604 27.4303 18.8604H26.0072V15.9177H27.4303C27.5128 15.9177 27.5918 15.8855 27.6501 15.8281C27.7083 15.7708 27.7411 15.693 27.7411 15.6118C27.7411 15.5307 27.7083 15.4529 27.6501 15.3955C27.5918 15.3382 27.5128 15.306 27.4303 15.306H26.0072V12.3542H27.4303ZM21.8685 12.3542V15.306H18.9539V12.3542H21.8685ZM11.8944 15.9177H14.7996V18.8665H11.8944V15.9177ZM11.2729 18.8665H8.3739V15.9177H11.2729V18.8665ZM15.4272 15.9177H18.3325V18.8665H15.4272V15.9177ZM18.9539 15.9177H21.8591V18.8665H18.9539V15.9177ZM18.3325 12.3603V15.306H15.4272V12.3542L18.3325 12.3603ZM14.8058 12.3603V15.306H11.8944V12.3542L14.8058 12.3603ZM11.2729 12.3542V15.306H8.3739V12.3542H11.2729ZM4.83791 12.3542H7.74625V15.306H4.84412L4.83791 12.3542ZM4.83791 15.9116H7.74625V18.8604H4.84412L4.83791 15.9116ZM4.83791 22.4209V19.4721H7.74625V22.4209H4.83791ZM8.36769 22.4209V19.4721H11.2729V22.4209H8.36769ZM11.8944 22.4209V19.4721H14.7996V22.4209H11.8944ZM15.421 22.4209V19.4721H18.3263V22.4209H15.421ZM18.9477 22.4209V19.4721H21.8529V22.4209H18.9477ZM25.3796 22.4209H22.4806V19.4721H25.3858L25.3796 22.4209ZM25.3796 18.8604H22.4806V15.9177H25.3858L25.3796 18.8604ZM25.3796 15.2998H22.4806V12.3542H25.3858L25.3796 15.2998ZM7.0782 13.6052L6.32626 14.3455C6.29748 14.3744 6.26316 14.3974 6.22529 14.4131C6.18742 14.4289 6.14676 14.4371 6.10565 14.4372C6.06454 14.4371 6.02387 14.4289 5.986 14.4131C5.94813 14.3974 5.91381 14.3744 5.88503 14.3455L5.46867 13.9356C5.4108 13.8783 5.37831 13.8007 5.37831 13.7199C5.37831 13.6391 5.4108 13.5616 5.46867 13.5043C5.52689 13.4473 5.60564 13.4153 5.68773 13.4153C5.76981 13.4153 5.84857 13.4473 5.90678 13.5043L6.10565 13.697L6.64008 13.1648C6.66794 13.1327 6.70222 13.1067 6.74077 13.0884C6.77932 13.07 6.8213 13.0597 6.8641 13.0581C6.90689 13.0564 6.94956 13.0635 6.98943 13.0789C7.02931 13.0943 7.06552 13.1176 7.0958 13.1474C7.12608 13.1772 7.14978 13.2129 7.1654 13.2521C7.18102 13.2914 7.18823 13.3334 7.18658 13.3755C7.18492 13.4176 7.17444 13.459 7.15579 13.4969C7.13714 13.5349 7.11072 13.5686 7.0782 13.5961V13.6052ZM17.6116 17.233L16.8659 17.9733C16.8368 18.0016 16.8024 18.0241 16.7645 18.0393C16.7267 18.0545 16.6862 18.0622 16.6453 18.062C16.6044 18.0622 16.5638 18.0545 16.526 18.0393C16.4881 18.0241 16.4537 18.0016 16.4247 17.9733L16.0083 17.5634C15.9792 17.535 15.956 17.5011 15.9403 17.4639C15.9245 17.4266 15.9164 17.3866 15.9164 17.3462C15.9164 17.3058 15.9245 17.2659 15.9403 17.2286C15.956 17.1913 15.9792 17.1575 16.0083 17.129C16.0665 17.0721 16.1453 17.0401 16.2273 17.0401C16.3094 17.0401 16.3882 17.0721 16.4464 17.129L16.6453 17.3248L17.1766 16.7987C17.2364 16.749 17.313 16.7233 17.3912 16.7268C17.4694 16.7303 17.5434 16.7627 17.5984 16.8176C17.6533 16.8725 17.6852 16.9457 17.6877 17.0228C17.6901 17.0998 17.663 17.1749 17.6116 17.233ZM10.726 20.7354L9.97411 21.4787C9.94522 21.5074 9.91086 21.5302 9.87299 21.5457C9.83513 21.5612 9.79451 21.5692 9.7535 21.5692C9.71248 21.5692 9.67186 21.5612 9.634 21.5457C9.59614 21.5302 9.56177 21.5074 9.53289 21.4787L9.11652 21.0658C9.06562 21.0073 9.03902 20.932 9.04204 20.855C9.04506 20.778 9.07748 20.705 9.13281 20.6505C9.18815 20.5961 9.26233 20.5641 9.34053 20.5612C9.41873 20.5582 9.49519 20.5844 9.55464 20.6345L9.7535 20.8272L10.2848 20.3041C10.3137 20.2755 10.3481 20.2527 10.3859 20.2372C10.4238 20.2217 10.4644 20.2137 10.5054 20.2137C10.5465 20.2137 10.5871 20.2217 10.6249 20.2372C10.6628 20.2527 10.6972 20.2755 10.726 20.3041C10.7839 20.3615 10.8164 20.439 10.8164 20.5198C10.8164 20.6006 10.7839 20.6781 10.726 20.7354ZM23.2263 13.5043C23.2552 13.4756 23.2896 13.4529 23.3274 13.4373C23.3653 13.4218 23.4059 13.4138 23.4469 13.4138C23.4879 13.4138 23.5286 13.4218 23.5664 13.4373C23.6043 13.4529 23.6386 13.4756 23.6675 13.5043L23.8664 13.697L24.3977 13.1648C24.4266 13.1361 24.461 13.1133 24.4988 13.0978C24.5367 13.0823 24.5773 13.0743 24.6183 13.0743C24.6594 13.0743 24.7 13.0823 24.7378 13.0978C24.7757 13.1133 24.8101 13.1361 24.8389 13.1648C24.8968 13.2221 24.9293 13.2996 24.9293 13.3804C24.9293 13.4612 24.8968 13.5387 24.8389 13.5961L24.0839 14.3363C24.0257 14.3933 23.9469 14.4252 23.8648 14.4252C23.7828 14.4252 23.704 14.3933 23.6458 14.3363L23.2263 13.9264C23.1712 13.8695 23.1405 13.7939 23.1405 13.7153C23.1405 13.6368 23.1712 13.5612 23.2263 13.5043Z" fill="#A4A4A4"/>
</svg>
