<svg width="33" height="30" viewBox="0 0 33 30" fill="none" xmlns="http://www.w3.org/2000/svg">
<path d="M31.9998 12.1262C33.8038 7.1258 30.4167 1.09 25.3067 0.16274C20.5469 -0.826531 17.3904 2.94732 16.2273 4.66624C11.8425 -1.99712 5.61087 -0.052358 2.36136 3.08051C0.163096 5.36146 -0.437679 8.44309 0.598136 12.0307C0.521797 12.028 0.445696 12.0409 0.374227 12.0686C0.302758 12.0963 0.237338 12.1382 0.181743 12.192C0.126148 12.2458 0.0814796 12.3104 0.0503175 12.382C0.0191553 12.4536 0.00211645 12.5309 0.000184942 12.6093C-0.00174657 12.6877 0.0114675 12.7658 0.039064 12.8389C0.0666605 12.9121 0.108093 12.9789 0.160969 13.0355C0.213844 13.0921 0.277116 13.1374 0.34713 13.1687C0.417145 13.2001 0.492515 13.2169 0.568888 13.2182H1.00107C2.02751 15.8206 3.67147 18.1179 5.78326 19.9011L16.4153 29.0717C16.5237 29.1653 16.6618 29.2148 16.8033 29.2107C16.9449 29.2066 17.08 29.1494 17.1832 29.0497L27.7181 18.8815C29.3895 17.3301 30.7109 15.4227 31.59 13.2924H31.8971C32.0392 13.2911 32.1757 13.2355 32.2802 13.1366C32.3846 13.0377 32.4496 12.9024 32.4624 12.757C32.4752 12.6117 32.4349 12.4667 32.3494 12.3501C32.264 12.2335 32.1394 12.1537 31.9998 12.1262ZM3.17324 3.92637C6.61436 0.756572 11.9799 -0.362712 15.7485 6.07188C15.8018 6.16053 15.8772 6.23298 15.9668 6.28178C16.0564 6.33057 16.1571 6.35395 16.2584 6.3495C16.3597 6.34577 16.4583 6.31481 16.5442 6.25972C16.6302 6.20462 16.7007 6.12731 16.7484 6.03552C16.7778 5.97754 19.8293 0.234281 25.0776 1.32639C29.6751 2.16243 32.5865 7.68442 30.7916 12.105L19.5007 12.1049C19.4125 12.1049 19.3254 12.1256 19.2461 12.1655C19.1668 12.2054 19.0975 12.2635 19.0434 12.3351L17.9273 13.8163L14.515 8.62709C14.4663 8.55419 14.4025 8.4933 14.3281 8.4488C14.2537 8.40431 14.1706 8.37732 14.0849 8.36978C13.9991 8.36223 13.9128 8.37433 13.8321 8.40519C13.7515 8.43605 13.6785 8.48491 13.6184 8.54824L10.1203 12.291L7.94557 10.2541C7.8414 10.1565 7.70608 10.1013 7.56508 10.099C7.42408 10.0967 7.28713 10.1474 7.18 10.2416L5.14471 12.0307H1.80986C0.749408 8.69496 1.20752 5.96608 3.17324 3.92637ZM30.1509 13.6835C29.3356 15.3132 28.2437 16.7805 26.9266 18.0163L16.7659 27.8231L6.52736 18.9919C4.6841 17.4343 3.21893 15.4576 2.24771 13.2182H5.35812C5.496 13.2182 5.62935 13.1676 5.73413 13.0756L7.5436 11.4848L9.75787 13.5583C9.86924 13.6628 10.016 13.7184 10.1667 13.7132C10.3175 13.7081 10.4603 13.6426 10.5647 13.5307L13.9572 9.90069L17.4158 15.1606C17.4675 15.2377 17.5361 15.3013 17.6161 15.3462C17.6961 15.3911 17.7853 15.4161 17.8764 15.4191C17.9675 15.4222 18.0581 15.4032 18.1407 15.3637C18.2234 15.3243 18.2959 15.2654 18.3524 15.1919L19.7842 13.2924H30.3264C30.2683 13.4228 30.2137 13.5534 30.1509 13.6835Z" fill="#A4A4A4"/>
</svg>
