<svg width="35" height="27" viewBox="0 0 35 27" fill="none" xmlns="http://www.w3.org/2000/svg">
<path d="M30.0045 15.5518V25.6532C30.0045 26.0179 29.867 26.3336 29.592 26.6002C29.317 26.8667 28.9914 27 28.6151 27H20.2788V18.9189H14.7212V27H6.38491C6.00861 27 5.68298 26.8667 5.40799 26.6002C5.13301 26.3336 4.99552 26.0179 4.99552 25.6532V15.5518C4.99552 15.5378 4.99914 15.5168 5.00638 15.4887C5.01361 15.4606 5.01723 15.4396 5.01723 15.4256L17.5 5.45051L29.9828 15.4256C29.9972 15.4536 30.0045 15.4957 30.0045 15.5518ZM34.8456 14.0998L33.4997 15.6571C33.3839 15.7833 33.2319 15.8605 33.0438 15.8885H32.9786C32.7905 15.8885 32.6385 15.8394 32.5227 15.7412L17.5 3.5986L2.47726 15.7412C2.30358 15.8535 2.12991 15.9026 1.95624 15.8885C1.76809 15.8605 1.61613 15.7833 1.50034 15.6571L0.154376 14.0998C0.0385941 13.9595 -0.0120606 13.7946 0.00241213 13.6052C0.0168849 13.4158 0.0964852 13.265 0.241213 13.1528L15.8501 0.547155C16.3132 0.182385 16.8632 0 17.5 0C18.1368 0 18.6868 0.182385 19.1499 0.547155L24.4469 4.84022V0.736555C24.4469 0.54014 24.5121 0.3788 24.6423 0.252533C24.7726 0.126267 24.939 0.0631333 25.1416 0.0631333H29.3098C29.5124 0.0631333 29.6788 0.126267 29.8091 0.252533C29.9394 0.3788 30.0045 0.54014 30.0045 0.736555V9.32268L34.7588 13.1528C34.9035 13.265 34.9831 13.4158 34.9976 13.6052C35.0121 13.7946 34.9614 13.9595 34.8456 14.0998Z" fill="#0059B5"/>
</svg>
