<svg width="26" height="31" viewBox="0 0 26 31" fill="none" xmlns="http://www.w3.org/2000/svg">
<path d="M2.12727 9.19667C1.4685 9.63121 0.933662 10.1931 0.564616 10.8385C0.195569 11.4839 0.00232329 12.1951 0 12.9167V28.4167C0.000293649 29.1017 0.311669 29.7587 0.86569 30.2431C1.41971 30.7275 2.17104 30.9997 2.95455 31H21.8636C22.9607 31 24.0128 30.619 24.7885 29.9407C25.5642 29.2624 26 28.3425 26 27.3833C26 26.4241 25.5642 25.5042 24.7885 24.826C24.0128 24.1477 22.9607 23.7667 21.8636 23.7667H20.0909V12.9167C20.0886 12.1951 19.8953 11.4839 19.5263 10.8385C19.1572 10.1931 18.6224 9.63121 17.9636 9.19667L15.3636 7.49167V6.0915C15.7098 5.97881 16.0083 5.77648 16.2195 5.51153C16.4307 5.24658 16.5444 4.93161 16.5455 4.60867V1.59133C16.5452 1.16934 16.3534 0.764691 16.0121 0.466299C15.6709 0.167907 15.2081 0.000188262 14.7255 0H5.36545C4.88283 0.000188262 4.42003 0.167907 4.07876 0.466299C3.73749 0.764691 3.54567 1.16934 3.54545 1.59133V4.60867C3.54652 4.93161 3.66023 5.24658 3.8714 5.51153C4.08257 5.77648 4.38114 5.97881 4.72727 6.0915V7.49167L2.12727 9.19667ZM2.95455 29.9667C2.48481 29.9655 2.03472 29.8018 1.70257 29.5113C1.37041 29.2209 1.1832 28.8274 1.18182 28.4167H10.8077C11.0114 29.0042 11.3813 29.5373 11.8832 29.9667H2.95455ZM12.4091 19.1167C12.5658 19.1167 12.7161 19.1711 12.8269 19.268C12.9377 19.3649 13 19.4963 13 19.6333V20.6667C13 20.8037 12.9377 20.9351 12.8269 21.032C12.7161 21.1289 12.5658 21.1833 12.4091 21.1833H11.2273V22.2167C11.2273 22.3537 11.165 22.4851 11.0542 22.582C10.9434 22.6789 10.7931 22.7333 10.6364 22.7333H9.45455C9.29783 22.7333 9.14753 22.6789 9.03671 22.582C8.92589 22.4851 8.86364 22.3537 8.86364 22.2167V21.1833H7.68182C7.5251 21.1833 7.3748 21.1289 7.26398 21.032C7.15316 20.9351 7.09091 20.8037 7.09091 20.6667V19.6333C7.09091 19.4963 7.15316 19.3649 7.26398 19.268C7.3748 19.1711 7.5251 19.1167 7.68182 19.1167H8.86364V18.0833C8.86364 17.9463 8.92589 17.8149 9.03671 17.718C9.14753 17.6211 9.29783 17.5667 9.45455 17.5667H10.6364C10.7931 17.5667 10.9434 17.6211 11.0542 17.718C11.165 17.8149 11.2273 17.9463 11.2273 18.0833V19.1167H12.4091ZM17.7273 29.9667H14.7727C13.9891 29.9667 13.2376 29.6945 12.6835 29.21C12.1295 28.7256 11.8182 28.0685 11.8182 27.3833C11.8182 26.6982 12.1295 26.0411 12.6835 25.5566C13.2376 25.0722 13.9891 24.8 14.7727 24.8H17.7273V29.9667ZM12.4091 2.58333C12.4091 2.4463 12.4713 2.31489 12.5822 2.21799C12.693 2.1211 12.8433 2.06667 13 2.06667C13.1567 2.06667 13.307 2.1211 13.4178 2.21799C13.5287 2.31489 13.5909 2.4463 13.5909 2.58333V3.61667C13.5909 3.7537 13.5287 3.88511 13.4178 3.982C13.307 4.0789 13.1567 4.13333 13 4.13333C12.8433 4.13333 12.693 4.0789 12.5822 3.982C12.4713 3.88511 12.4091 3.7537 12.4091 3.61667V2.58333ZM9.45455 2.58333C9.45455 2.4463 9.5168 2.31489 9.62762 2.21799C9.73843 2.1211 9.88873 2.06667 10.0455 2.06667C10.2022 2.06667 10.3525 2.1211 10.4633 2.21799C10.5741 2.31489 10.6364 2.4463 10.6364 2.58333V3.61667C10.6364 3.7537 10.5741 3.88511 10.4633 3.982C10.3525 4.0789 10.2022 4.13333 10.0455 4.13333C9.88873 4.13333 9.73843 4.0789 9.62762 3.982C9.5168 3.88511 9.45455 3.7537 9.45455 3.61667V2.58333ZM6.5 2.58333C6.5 2.4463 6.56226 2.31489 6.67307 2.21799C6.78389 2.1211 6.93419 2.06667 7.09091 2.06667C7.24763 2.06667 7.39793 2.1211 7.50875 2.21799C7.61956 2.31489 7.68182 2.4463 7.68182 2.58333V3.61667C7.68182 3.7537 7.61956 3.88511 7.50875 3.982C7.39793 4.0789 7.24763 4.13333 7.09091 4.13333C6.93419 4.13333 6.78389 4.0789 6.67307 3.982C6.56226 3.88511 6.5 3.7537 6.5 3.61667V2.58333ZM5.90909 6.2H14.1818V7.23333H5.90909V6.2ZM5.51318 8.26667H14.5777L17.2545 10.0233C17.767 10.3613 18.183 10.7983 18.4701 11.3003C18.7571 11.8022 18.9074 12.3555 18.9091 12.9167H1.18182C1.18353 12.3555 1.33379 11.8022 1.62083 11.3003C1.90787 10.7983 2.32391 10.3613 2.83636 10.0233L5.51318 8.26667Z" fill="#A4A4A4"/>
</svg>
