<svg width="69" height="69" viewBox="0 0 69 69" fill="none" xmlns="http://www.w3.org/2000/svg">
<circle cx="34.5" cy="34.5" r="34.5" fill="#F3F4F6"/>
<path d="M40.5938 23.9167C42.9237 23.9167 44.8125 22.0699 44.8125 19.7917C44.8125 17.5135 42.9237 15.6667 40.5938 15.6667C38.2638 15.6667 36.375 17.5135 36.375 19.7917C36.375 22.0699 38.2638 23.9167 40.5938 23.9167ZM32.1188 27.8421C30.9493 28.1256 30.1518 28.5531 29.5079 29.0832C28.5415 29.879 27.7626 31.0272 26.7086 32.8304C26.1949 33.7095 25.0495 34.015 24.1505 33.5126C23.2513 33.0102 22.939 31.8903 23.4528 31.0112C24.5014 29.217 25.5621 27.5386 27.0923 26.2786C28.6901 24.963 30.6452 24.2181 33.2835 23.9314C34.3857 23.8116 35.5981 23.8357 36.7356 24.3321C37.9297 24.8533 38.8009 25.7872 39.3953 27.0355C40.1958 28.7162 40.7913 29.7168 41.2683 30.2962C41.4976 30.5747 41.658 30.7039 41.7486 30.7617C41.8208 30.8078 41.8512 30.8113 41.8629 30.8126L41.8643 30.8128C41.9459 30.8225 42.2096 30.8124 42.9866 30.4766C43.3247 30.3305 43.6944 30.1539 44.1459 29.9382L44.2539 29.8866C44.7426 29.6533 45.3019 29.3879 45.9264 29.1164C46.8727 28.7052 47.9808 29.1219 48.4013 30.0472C48.8219 30.9724 48.3958 32.0558 47.4495 32.4671C46.8914 32.7095 46.3843 32.9499 45.8996 33.1813L45.7771 33.2399C45.3449 33.4464 44.9101 33.6543 44.5027 33.8303C43.6583 34.1953 42.5795 34.5916 41.411 34.4526C40.1777 34.3057 39.2266 33.6255 38.4443 32.7113L35.8814 37.5444L39.4249 42.0532C39.6363 42.3221 39.7672 42.6431 39.8031 42.9804L40.5837 50.3103C40.691 51.3173 39.9429 52.2188 38.913 52.3235C37.883 52.4285 36.9611 51.6971 36.8539 50.69L36.1283 43.8761L33.9759 41.1376L33.9579 41.1716L33.8787 41.0139L29.9015 35.9532C29.504 35.4474 29.4038 34.7762 29.6371 34.1806L32.1188 27.8421Z" fill="#555555"/>
<path d="M29.2801 38.5898L27.9003 42.2203L22.4617 41.7974C21.4294 41.7171 20.526 42.4704 20.444 43.4796C20.3619 44.489 21.1321 45.3723 22.1644 45.4526L29.0156 45.9852C29.8514 46.0502 30.6297 45.5648 30.9218 44.7963L31.9766 42.0209L29.2801 38.5898Z" fill="#555555"/>
</svg>
