<svg width="20" height="22" viewBox="0 0 20 22" fill="none" xmlns="http://www.w3.org/2000/svg">
<path d="M17.3338 2H17.3077V0.666667C17.3077 0.489856 17.2266 0.320286 17.0824 0.195262C16.9381 0.0702379 16.7425 0 16.5385 0C16.3344 0 16.1388 0.0702379 15.9945 0.195262C15.8503 0.320286 15.7692 0.489856 15.7692 0.666667V2H13.0769V0.666667C13.0769 0.489856 12.9959 0.320286 12.8516 0.195262C12.7074 0.0702379 12.5117 0 12.3077 0C12.1037 0 11.908 0.0702379 11.7638 0.195262C11.6195 0.320286 11.5385 0.489856 11.5385 0.666667V2H8.84615V0.666667C8.84615 0.489856 8.76511 0.320286 8.62085 0.195262C8.47659 0.0702379 8.28094 0 8.07692 0C7.87291 0 7.67725 0.0702379 7.533 0.195262C7.38874 0.320286 7.30769 0.489856 7.30769 0.666667V2H4.61538V0.666667C4.61538 0.489856 4.53434 0.320286 4.39008 0.195262C4.24582 0.0702379 4.05017 0 3.84615 0C3.64214 0 3.44648 0.0702379 3.30223 0.195262C3.15797 0.320286 3.07692 0.489856 3.07692 0.666667V2H2.66615C1.95908 2.00009 1.28099 2.24356 0.781011 2.67688C0.281032 3.11019 0.00010198 3.69787 0 4.31067V19.6893C0.00010198 20.3021 0.281032 20.8898 0.781011 21.3231C1.28099 21.7564 1.95908 21.9999 2.66615 22H17.3338C18.0409 21.9999 18.719 21.7564 19.219 21.3231C19.719 20.8898 19.9999 20.3021 20 19.6893V4.31067C19.9999 3.69787 19.719 3.11019 19.219 2.67688C18.719 2.24356 18.0409 2.00009 17.3338 2ZM2.66615 3.33333H3.07692V5C3.07692 5.17681 3.15797 5.34638 3.30223 5.4714C3.44648 5.59643 3.64214 5.66667 3.84615 5.66667C4.05017 5.66667 4.24582 5.59643 4.39008 5.4714C4.53434 5.34638 4.61538 5.17681 4.61538 5V3.33333H7.30769V5C7.30769 5.17681 7.38874 5.34638 7.533 5.4714C7.67725 5.59643 7.87291 5.66667 8.07692 5.66667C8.28094 5.66667 8.47659 5.59643 8.62085 5.4714C8.76511 5.34638 8.84615 5.17681 8.84615 5V3.33333H11.5385V5C11.5385 5.17681 11.6195 5.34638 11.7638 5.4714C11.908 5.59643 12.1037 5.66667 12.3077 5.66667C12.5117 5.66667 12.7074 5.59643 12.8516 5.4714C12.9959 5.34638 13.0769 5.17681 13.0769 5V3.33333H15.7692V5C15.7692 5.17681 15.8503 5.34638 15.9945 5.4714C16.1388 5.59643 16.3344 5.66667 16.5385 5.66667C16.7425 5.66667 16.9381 5.59643 17.0824 5.4714C17.2266 5.34638 17.3077 5.17681 17.3077 5V3.33333H17.3338C17.4819 3.33333 17.6286 3.35861 17.7654 3.40773C17.9022 3.45684 18.0265 3.52883 18.1312 3.61959C18.236 3.71034 18.319 3.81808 18.3757 3.93666C18.4324 4.05523 18.4615 4.18232 18.4615 4.31067V7.66667H1.53846V4.31067C1.53846 4.18232 1.56763 4.05523 1.6243 3.93666C1.68097 3.81808 1.76404 3.71034 1.86875 3.61959C1.97347 3.52883 2.09779 3.45684 2.2346 3.40773C2.37142 3.35861 2.51806 3.33333 2.66615 3.33333ZM17.3338 20.6667H2.66615C2.51806 20.6667 2.37142 20.6414 2.2346 20.5923C2.09779 20.5432 1.97347 20.4712 1.86875 20.3804C1.76404 20.2897 1.68097 20.1819 1.6243 20.0633C1.56763 19.9448 1.53846 19.8177 1.53846 19.6893V8.33333H18.4615V19.6893C18.4616 19.8177 18.4325 19.9448 18.3758 20.0634C18.3191 20.182 18.2361 20.2897 18.1314 20.3805C18.0266 20.4713 17.9023 20.5433 17.7655 20.5924C17.6286 20.6415 17.482 20.6667 17.3338 20.6667Z" fill="#5B5B5C"/>
<path d="M16.5522 15.1886C16.4563 15.1886 16.3643 15.2188 16.2965 15.2724C16.2287 15.326 16.1906 15.3987 16.1906 15.4745V16.3848C16.1906 17.221 15.865 17.7616 15.294 17.7616H9.36168C9.26576 17.7616 9.17376 17.7917 9.10593 17.8453C9.03811 17.8989 9 17.9716 9 18.0475C9 18.1233 9.03811 18.196 9.10593 18.2496C9.17376 18.3032 9.26576 18.3333 9.36168 18.3333H15.294C16.3041 18.3333 16.9139 17.5686 16.9139 16.3848V15.4745C16.9139 15.3987 16.8758 15.326 16.808 15.2724C16.7402 15.2188 16.6482 15.1886 16.5522 15.1886ZM16.3812 13.831C16.314 13.8846 16.2763 13.9571 16.2763 14.0325C16.2763 14.108 16.314 14.1804 16.3812 14.2341C16.4499 14.2871 16.5421 14.3168 16.6381 14.3168C16.7342 14.3168 16.8264 14.2871 16.8951 14.2341C16.9606 14.1798 17 14.1052 17 14.0308C17 13.9562 16.9606 13.8819 16.8951 13.8281C16.7577 13.7221 16.5193 13.7249 16.3812 13.831Z" fill="#5B5B5C"/>
</svg>
