<svg width="69" height="69" viewBox="0 0 69 69" fill="none" xmlns="http://www.w3.org/2000/svg">
<circle cx="34.5" cy="34.5" r="34.5" fill="#F3F4F6"/>
<path d="M29.2952 29.2608C27.8417 29.1848 26.4756 28.527 25.4918 27.4294C24.508 26.3319 23.9854 24.8825 24.0367 23.3942V18.2058C24.0597 17.9632 24.1701 17.7381 24.3465 17.5743C24.5229 17.4105 24.7525 17.3197 24.9907 17.3197C25.2289 17.3197 25.4586 17.4105 25.635 17.5743C25.8113 17.7381 25.9218 17.9632 25.9448 18.2058V23.3942C25.8952 24.3636 26.2178 25.3145 26.8437 26.0441C27.4696 26.7736 28.3493 27.224 29.2952 27.2992C30.2395 27.2217 31.1169 26.7703 31.741 26.0411C32.365 25.3118 32.6864 24.3621 32.6367 23.3942V18.4992C32.6597 18.2566 32.7701 18.0314 32.9465 17.8676C33.1229 17.7038 33.3525 17.613 33.5907 17.613C33.8289 17.613 34.0586 17.7038 34.235 17.8676C34.4113 18.0314 34.5218 18.2566 34.5448 18.4992V23.3942C34.5985 24.8817 34.0779 26.331 33.0955 27.4288C32.1131 28.5267 30.748 29.1848 29.2952 29.2608ZM29.2952 50.7658C29.1677 50.7752 29.0398 50.7566 28.9199 50.7113C28.8001 50.6659 28.6911 50.5948 28.6003 50.5028C28.5095 50.4107 28.439 50.2999 28.3935 50.1776C28.348 50.0554 28.3287 49.9247 28.3367 49.7942V18.4992C28.3597 18.2566 28.4701 18.0314 28.6465 17.8676C28.8229 17.7038 29.0525 17.613 29.2907 17.613C29.5289 17.613 29.7586 17.7038 29.935 17.8676C30.1113 18.0314 30.2218 18.2566 30.2448 18.4992V49.7942C30.2527 49.9239 30.2335 50.0538 30.1885 50.1753C30.1436 50.2968 30.0739 50.4072 29.9841 50.4991C29.8943 50.591 29.7865 50.6623 29.6677 50.7083C29.5489 50.7542 29.422 50.7739 29.2952 50.7658ZM38.37 50.7658C38.2425 50.7752 38.1146 50.7566 37.9947 50.7113C37.8748 50.6659 37.7659 50.5948 37.6751 50.5028C37.5843 50.4107 37.5138 50.2999 37.4683 50.1776C37.4228 50.0554 37.4035 49.9247 37.4115 49.7942V18.4992C37.4406 18.1994 37.578 17.9216 37.7967 17.72C37.9265 17.6293 38.0761 17.5727 38.2323 17.5551C38.3885 17.5375 38.5465 17.5595 38.6925 17.6192C44.1392 19.9658 44.9006 33.56 44.9633 35.1275C44.9642 35.2547 44.9391 35.3807 44.8898 35.4975C44.8404 35.6143 44.7678 35.7193 44.6767 35.8058C44.4972 35.9873 44.257 36.0921 44.0048 36.0992H39.23V49.7942C39.2564 49.9194 39.2533 50.0493 39.2209 50.173C39.1885 50.2968 39.1278 50.4109 39.0437 50.5059C38.9597 50.6008 38.8547 50.6739 38.7376 50.7191C38.6204 50.7644 38.4944 50.7804 38.37 50.7658ZM39.3285 34.1467H43.0552C42.7685 30.3333 41.7115 23.2933 39.3285 20.4608V34.1467Z" fill="#555555"/>
</svg>
