<svg width="69" height="69" viewBox="0 0 69 69" fill="none" xmlns="http://www.w3.org/2000/svg">
<circle cx="34.5" cy="34.5" r="34.5" fill="#F3F4F6"/>
<path d="M45.9997 26.9326C46.0034 26.8097 45.975 26.688 45.9171 26.5795C45.9171 26.5795 45.9171 26.5795 45.9171 26.4971C45.8726 26.4189 45.817 26.3476 45.752 26.2853L37.4957 19.2237L37.3542 19.1413L37.248 19.0707C37.1241 19.0222 36.9919 18.9982 36.8588 19.0001H23.8846C23.652 19.0001 23.4288 19.0915 23.2632 19.2545C23.0977 19.4175 23.0031 19.639 23 19.871V48.1173C23 48.3514 23.0932 48.5759 23.2591 48.7415C23.425 48.907 23.65 49 23.8846 49H45.1151C45.3487 48.997 45.572 48.903 45.7372 48.7381C45.9024 48.5732 45.9966 48.3505 45.9997 48.1173V26.9326ZM37.7434 21.7777L42.7561 26.0734H37.7434V21.7777ZM24.7692 47.1993V20.7655H35.9742V26.9326C35.9769 27.1661 36.0698 27.3896 36.2337 27.5564C36.3994 27.722 36.6242 27.8151 36.8588 27.8153H44.2305V47.2228L24.7692 47.1993Z" fill="#5B5B5C"/>
<path d="M27.4938 26.7326H32.0112C32.2458 26.7326 32.4708 26.6396 32.6367 26.474C32.8026 26.3085 32.8958 26.084 32.8958 25.8499C32.8958 25.6158 32.8026 25.3912 32.6367 25.2257C32.4708 25.0602 32.2458 24.9672 32.0112 24.9672H27.4938C27.2592 24.9672 27.0342 25.0602 26.8683 25.2257C26.7024 25.3912 26.6092 25.6158 26.6092 25.8499C26.6092 26.084 26.7024 26.3085 26.8683 26.474C27.0342 26.6396 27.2592 26.7326 27.4938 26.7326ZM41.5059 29.6513H27.4938C27.2592 29.6513 27.0342 29.7443 26.8683 29.9099C26.7024 30.0754 26.6092 30.2999 26.6092 30.534C26.6092 30.7681 26.7024 30.9927 26.8683 31.1582C27.0342 31.3237 27.2592 31.4167 27.4938 31.4167H41.5059C41.7405 31.4167 41.9655 31.3237 42.1314 31.1582C42.2973 30.9927 42.3905 30.7681 42.3905 30.534C42.3905 30.2999 42.2973 30.0754 42.1314 29.9099C41.9655 29.7443 41.7405 29.6513 41.5059 29.6513ZM41.5059 34.3002H27.4938C27.2592 34.3002 27.0342 34.3932 26.8683 34.5587C26.7024 34.7243 26.6092 34.9488 26.6092 35.1829C26.6092 35.417 26.7024 35.6415 26.8683 35.8071C27.0342 35.9726 27.2592 36.0656 27.4938 36.0656H41.5059C41.7405 36.0656 41.9655 35.9726 42.1314 35.8071C42.2973 35.6415 42.3905 35.417 42.3905 35.1829C42.3905 34.9488 42.2973 34.7243 42.1314 34.5587C41.9655 34.3932 41.7405 34.3002 41.5059 34.3002ZM41.5059 38.9726H27.4938C27.2592 38.9726 27.0342 39.0656 26.8683 39.2311C26.7024 39.3967 26.6092 39.6212 26.6092 39.8553C26.6092 40.0894 26.7024 40.3139 26.8683 40.4795C27.0342 40.645 27.2592 40.738 27.4938 40.738H41.5059C41.7405 40.738 41.9655 40.645 42.1314 40.4795C42.2973 40.3139 42.3905 40.0894 42.3905 39.8553C42.3905 39.6212 42.2973 39.3967 42.1314 39.2311C41.9655 39.0656 41.7405 38.9726 41.5059 38.9726ZM41.5059 43.4096H27.4938C27.2592 43.4096 27.0342 43.5026 26.8683 43.6682C26.7024 43.8337 26.6092 44.0582 26.6092 44.2923C26.6092 44.5264 26.7024 44.7509 26.8683 44.9165C27.0342 45.082 27.2592 45.175 27.4938 45.175H41.5059C41.7405 45.175 41.9655 45.082 42.1314 44.9165C42.2973 44.7509 42.3905 44.5264 42.3905 44.2923C42.3905 44.0582 42.2973 43.8337 42.1314 43.6682C41.9655 43.5026 41.7405 43.4096 41.5059 43.4096Z" fill="#5B5B5C"/>
</svg>
