<svg width="20" height="21" viewBox="0 0 20 21" fill="none" xmlns="http://www.w3.org/2000/svg">
<path fill-rule="evenodd" clip-rule="evenodd" d="M10 10.5023C7.794 10.5023 6 8.61898 6 6.30318C6 3.98738 7.794 2.10408 10 2.10408C12.206 2.10408 14 3.98738 14 6.30318C14 8.61898 12.206 10.5023 10 10.5023ZM13.758 11.2087C14.4582 10.6198 15.0232 9.87326 15.4113 9.0241C15.7994 8.17495 16.0006 7.245 16 6.30318C16.0007 5.23823 15.7442 4.19054 15.2545 3.25791C14.7647 2.32529 14.0577 1.53814 13.1996 0.970247C12.3414 0.402354 11.3601 0.072205 10.3473 0.010561C9.33457 -0.0510829 8.32346 0.157878 7.40851 0.617846C6.49356 1.07781 5.70465 1.77381 5.11551 2.64076C4.52637 3.50772 4.15622 4.51728 4.0397 5.57518C3.92319 6.63308 4.06408 7.70469 4.44922 8.6899C4.83436 9.67511 5.45118 10.5417 6.242 11.2087C2.583 12.6522 0 16.2183 0 21H2C2 15.7511 5.589 12.6018 10 12.6018C14.411 12.6018 18 15.7511 18 21H20C20 16.2183 17.417 12.6522 13.758 11.2087Z" fill="#555555"/>
</svg>
