<svg width="24" height="22" viewBox="0 0 24 22" fill="none" xmlns="http://www.w3.org/2000/svg">
<path d="M18.6999 22H5.30008C3.9769 22 2.90011 21.0129 2.90011 19.8V11.7334H0.800141C0.476945 11.7334 0.184149 11.5545 0.0609506 11.281C-0.0630478 11.0067 0.00575132 10.6914 0.234548 10.4816L11.4344 0.215048C11.7472 -0.0716827 12.2528 -0.0716827 12.5656 0.215048L23.7655 10.4816C23.9942 10.6914 24.063 11.0067 23.939 11.281C23.8151 11.5545 23.5231 11.7334 23.1999 11.7334H21.0999V19.8C21.0999 21.0129 20.0231 22 18.6999 22ZM15.5232 20.5333H18.6999C19.1415 20.5333 19.4999 20.2041 19.4999 19.8V11.0001C19.4999 10.5953 19.8575 10.2668 20.2999 10.2668H21.2687L12 1.77044L2.73132 10.2668H3.7001C4.1425 10.2668 4.50009 10.5953 4.50009 11.0001V19.8C4.50009 20.2041 4.85849 20.5333 5.30008 20.5333H8.47764V15.8452C8.47764 14.0647 10.0584 12.6163 12 12.6163C13.9424 12.6163 15.5232 14.0647 15.5232 15.8452V20.5333ZM13.9232 20.5333V15.8452C13.9232 14.8735 13.0608 14.083 12 14.083C10.94 14.083 10.0776 14.8735 10.0776 15.8452V20.5333H13.9232Z" fill="#555555"/>
</svg>
