<?xml version="1.0" encoding="utf-8"?>
<!-- Generator: Adobe Illustrator 22.0.1, SVG Export Plug-In . SVG Version: 6.00 Build 0)  -->
<svg version="1.1" id="Layer_1" xmlns="http://www.w3.org/2000/svg" xmlns:xlink="http://www.w3.org/1999/xlink" x="0px" y="0px"
	 viewBox="0 0 53 53" style="enable-background:new 0 0 53 53;" xml:space="preserve">
<g>
	<path d="M49.5085907,15.5526028H36.6085968c-0.276001,0-0.5,0.2229996-0.5,0.5v32.8489914c0,0.2770004,0.223999,0.5,0.5,0.5
		h12.8999939c0.276001,0,0.5-0.2229996,0.5-0.5V16.0526028C50.0085907,15.7756023,49.7845917,15.5526028,49.5085907,15.5526028
		 M45.982605,28.2915974h-5.8500061v-5.6999931c0-1.6100006,1.3099976-2.9200058,2.9299927-2.9200058
		c0.8000031,0,1.5400085,0.3300018,2.0600128,0.8600006c0.5299988,0.5299988,0.8600006,1.25,0.8600006,2.0600052V28.2915974z"/>
	<path d="M16.3914032,15.5526028H3.4914093c-0.276001,0-0.5,0.2229996-0.5,0.5v32.8489914c0,0.2770004,0.223999,0.5,0.5,0.5
		h12.8999939c0.2769928,0,0.5-0.2229996,0.5-0.5V16.0526028C16.8914032,15.7756023,16.668396,15.5526028,16.3914032,15.5526028
		 M12.8664093,28.2915974H7.0164032v-5.6999931c0-1.6100006,1.3099976-2.9200058,2.9299927-2.9200058
		c0.8000031,0,1.5400085,0.3300018,2.0600128,0.8600006c0.5299988,0.5299988,0.8600006,1.25,0.8600006,2.0600052V28.2915974z"/>
	<path d="M11.4841003,4.5683956C11.1940918,3.9683971,10.6040955,3.598402,9.9440918,3.598402
		c-0.6699982,0-1.2599945,0.3699951-1.5399933,0.9699936l-4.75,9.9800034h12.5800018L11.4841003,4.5683956z"/>
	<path d="M44.603714,4.5683956c-0.2900085-0.5999985-0.8800049-0.9699936-1.5500031-0.9699936
		c-0.6600037,0-1.25,0.3699951-1.5400085,0.9699936l-4.75,9.9800034H49.353714L44.603714,4.5683956z"/>
	<path d="M35.1037903,21.3984966H17.8937988v27.5000019c0,0.1800003-0.0299988,0.3399963-0.0899963,0.5h17.3899994
		c-0.0599976-0.1600037-0.0900116-0.3199997-0.0900116-0.5V21.3984966z M31.7438049,47.3984985h-10.5v-8.3199997
		c0-2.9000015,2.3599854-5.25,5.25-5.25c1.4499969,0,2.7599945,0.5899963,3.7099915,1.5400009
		c0.9499969,0.9499969,1.5400085,2.2599945,1.5400085,3.7099991V47.3984985z"/>
</g>
</svg>
