<?xml version="1.0" encoding="utf-8"?>
<!-- Generator: Adobe Illustrator 27.9.0, SVG Export Plug-In . SVG Version: 6.00 Build 0)  -->
<svg version="1.1" id="Layer_1" xmlns="http://www.w3.org/2000/svg" xmlns:xlink="http://www.w3.org/1999/xlink" x="0px" y="0px"
	 viewBox="0 0 4000 1000" style="enable-background:new 0 0 4000 1000;" xml:space="preserve">
<style type="text/css">
	.st0{fill:none;stroke:#000000;stroke-width:9.5;stroke-linecap:round;stroke-linejoin:round;stroke-miterlimit:10;}
	.st1{fill:none;stroke:#FFFFFF;stroke-width:9.5;stroke-linecap:round;stroke-linejoin:round;stroke-miterlimit:10;}
	.st2{fill:#FFFFFF;}
</style>
<g>
	<g>
		<polyline class="st0" points="745.87,423.91 771.32,413.77 771.32,623.9 612.85,687.05 520.41,616.9 405.15,694.05 405.15,483.92 
			520.41,406.77 612.85,476.92 641.65,465.45 		"/>
		<path class="st0" d="M750.91,392.79c0,60.36-66.37,131.74-66.37,131.74s-66.37-71.38-66.37-131.74s29.72-86.84,66.37-86.84
			C721.2,305.95,750.91,332.43,750.91,392.79z"/>
		
			<ellipse transform="matrix(0.9239 -0.3827 0.3827 0.9239 -93.5903 290.9435)" class="st0" cx="684.54" cy="380.73" rx="34.52" ry="34.52"/>
		<line class="st0" x1="520.41" y1="406.77" x2="520.41" y2="616.9"/>
		<line class="st0" x1="612.85" y1="687.05" x2="612.85" y2="476.92"/>
	</g>
	<circle class="st0" cx="588.24" cy="500" r="324.59"/>
</g>
<g>
	<g>
		<path d="M2648.92,420.78v199.9l-148.97,59.36V480.15l21.93-8.74c18.37,31.22,39.96,54.67,41.53,56.36
			c0.9,0.97,2.16,1.52,3.48,1.52c1.32,0,2.58-0.55,3.48-1.52c2.25-2.42,45.7-49.62,61.75-100.29L2648.92,420.78z"/>
		<polygon points="2398.01,415.67 2398.01,614.36 2292.25,685.15 2292.25,486.46 		"/>
		<polygon points="2490.45,479.28 2490.45,677.48 2407.51,614.54 2407.51,416.34 		"/>
		<path d="M2610.2,329.81c-10.6-12.5-25.58-19.11-43.31-19.11c-17.73,0-32.71,6.61-43.31,19.11
			c-12.15,14.33-18.31,35.52-18.31,62.98c0,49.97,48.12,109.01,61.62,124.59c13.5-15.58,61.62-74.66,61.62-124.59
			C2628.51,365.33,2622.35,344.14,2610.2,329.81z M2566.89,410.49c-16.41,0-29.77-13.35-29.77-29.76
			c0-16.42,13.36-29.77,29.77-29.77c16.41,0,29.77,13.35,29.77,29.77C2596.66,397.14,2583.3,410.49,2566.89,410.49z"/>
	</g>
	<circle class="st0" cx="2470.59" cy="500" r="324.59"/>
</g>
<g>
	<circle cx="1529.41" cy="500" r="324.59"/>
	<g>
		<polyline class="st1" points="1687.05,423.91 1712.5,413.77 1712.5,623.9 1554.02,687.05 1461.58,616.9 1346.33,694.05 
			1346.33,483.92 1461.58,406.77 1554.02,476.92 1582.83,465.45 		"/>
		<path class="st1" d="M1692.09,392.79c0,60.36-66.37,131.74-66.37,131.74s-66.37-71.38-66.37-131.74s29.72-86.84,66.37-86.84
			C1662.37,305.95,1692.09,332.43,1692.09,392.79z"/>
		
			<ellipse transform="matrix(0.9239 -0.3827 0.3827 0.9239 -21.9477 651.1156)" class="st1" cx="1625.72" cy="380.73" rx="34.52" ry="34.52"/>
		<line class="st1" x1="1461.58" y1="406.77" x2="1461.58" y2="616.9"/>
		<line class="st1" x1="1554.02" y1="687.05" x2="1554.02" y2="476.92"/>
	</g>
</g>
<g>
	<circle cx="3411.76" cy="500" r="324.59"/>
	<g>
		<path class="st2" d="M3590.1,420.78v199.9l-148.97,59.36V480.15l21.93-8.74c18.37,31.22,39.96,54.67,41.53,56.36
			c0.9,0.97,2.16,1.52,3.48,1.52c1.32,0,2.58-0.55,3.48-1.52c2.25-2.42,45.7-49.62,61.75-100.29L3590.1,420.78z"/>
		<polygon class="st2" points="3339.19,415.67 3339.19,614.36 3233.43,685.15 3233.43,486.46 		"/>
		<polygon class="st2" points="3431.63,479.28 3431.63,677.48 3348.69,614.54 3348.69,416.34 		"/>
		<path class="st2" d="M3551.38,329.81c-10.6-12.5-25.58-19.11-43.31-19.11c-17.73,0-32.71,6.61-43.31,19.11
			c-12.15,14.33-18.31,35.52-18.31,62.98c0,49.97,48.12,109.01,61.62,124.59c13.5-15.58,61.62-74.66,61.62-124.59
			C3569.69,365.33,3563.53,344.14,3551.38,329.81z M3508.07,410.49c-16.41,0-29.77-13.35-29.77-29.76
			c0-16.42,13.36-29.77,29.77-29.77c16.41,0,29.77,13.35,29.77,29.77C3537.84,397.14,3524.48,410.49,3508.07,410.49z"/>
	</g>
</g>
</svg>
